<svg width="18" height="18" viewBox="0 0 18 18" fill="none" xmlns="http://www.w3.org/2000/svg">
<path d="M6.66667 10.2C6.50139 10.2 6.36294 10.1424 6.25133 10.0272C6.13972 9.912 6.08372 9.7696 6.08333 9.6C6.08294 9.4304 6.13894 9.288 6.25133 9.1728C6.36372 9.0576 6.50217 9 6.66667 9C6.83117 9 6.96981 9.0576 7.08258 9.1728C7.19536 9.288 7.25117 9.4304 7.25 9.6C7.24883 9.7696 7.19283 9.9122 7.082 10.0278C6.97117 10.1434 6.83272 10.2008 6.66667 10.2ZM9 10.2C8.83472 10.2 8.69628 10.1424 8.58467 10.0272C8.47305 9.912 8.41705 9.7696 8.41667 9.6C8.41628 9.4304 8.47228 9.288 8.58467 9.1728C8.69705 9.0576 8.8355 9 9 9C9.1645 9 9.30314 9.0576 9.41592 9.1728C9.52869 9.288 9.5845 9.4304 9.58333 9.6C9.58217 9.7696 9.52617 9.9122 9.41533 10.0278C9.3045 10.1434 9.16605 10.2008 9 10.2ZM11.3333 10.2C11.1681 10.2 11.0296 10.1424 10.918 10.0272C10.8064 9.912 10.7504 9.7696 10.75 9.6C10.7496 9.4304 10.8056 9.288 10.918 9.1728C11.0304 9.0576 11.1688 9 11.3333 9C11.4978 9 11.6365 9.0576 11.7492 9.1728C11.862 9.288 11.9178 9.4304 11.9167 9.6C11.9155 9.7696 11.8595 9.9122 11.7487 10.0278C11.6378 10.1434 11.4994 10.2008 11.3333 10.2ZM4.91667 15C4.59583 15 4.32128 14.8826 4.093 14.6478C3.86472 14.413 3.75039 14.1304 3.75 13.8V5.4C3.75 5.07 3.86433 4.7876 4.093 4.5528C4.32167 4.318 4.59622 4.2004 4.91667 4.2H5.5V3H6.66667V4.2H11.3333V3H12.5V4.2H13.0833C13.4042 4.2 13.6789 4.3176 13.9076 4.5528C14.1362 4.788 14.2504 5.0704 14.25 5.4V13.8C14.25 14.13 14.1359 14.4126 13.9076 14.6478C13.6793 14.883 13.4046 15.0004 13.0833 15H4.91667ZM4.91667 13.8H13.0833V7.8H4.91667V13.8ZM4.91667 6.6H13.0833V5.4H4.91667V6.6Z" fill="#498DCE"/>
</svg>
