<svg width="15" height="15" viewBox="0 0 15 15" fill="none" xmlns="http://www.w3.org/2000/svg">
<path d="M13.9404 2.62576C14.1833 2.37429 14.3177 2.03749 14.3146 1.68789C14.3116 1.33829 14.1714 1.00388 13.9241 0.756667C13.6769 0.509456 13.3425 0.369231 12.9929 0.366193C12.6433 0.363155 12.3065 0.497548 12.0551 0.740425L7.34038 5.45509L2.62572 0.740425C2.50272 0.613078 2.35559 0.511502 2.19292 0.441623C2.03025 0.371745 1.85529 0.334963 1.67825 0.333424C1.50121 0.331886 1.32564 0.365621 1.16178 0.432662C0.997916 0.499704 0.849046 0.598708 0.723856 0.723898C0.598666 0.849088 0.499662 0.997958 0.43262 1.16182C0.365579 1.32568 0.331844 1.50125 0.333382 1.67829C0.334921 1.85533 0.371703 2.03029 0.441581 2.19296C0.51146 2.35564 0.613036 2.50276 0.740383 2.62576L5.45505 7.34043L0.740383 12.0551C0.613036 12.1781 0.51146 12.3252 0.441581 12.4879C0.371703 12.6506 0.334921 12.8255 0.333382 13.0026C0.331844 13.1796 0.365579 13.3552 0.43262 13.519C0.499662 13.6829 0.598666 13.8318 0.723856 13.957C0.849046 14.0821 0.997916 14.1811 1.16178 14.2482C1.32564 14.3152 1.50121 14.349 1.67825 14.3474C1.85529 14.3459 2.03025 14.3091 2.19292 14.2392C2.35559 14.1693 2.50272 14.0678 2.62572 13.9404L7.34038 9.22576L12.0551 13.9404C12.178 14.0678 12.3252 14.1693 12.4878 14.2392C12.6505 14.3091 12.8255 14.3459 13.0025 14.3474C13.1796 14.349 13.3551 14.3152 13.519 14.2482C13.6828 14.1811 13.8317 14.0821 13.9569 13.957C14.0821 13.8318 14.1811 13.6829 14.2481 13.519C14.3152 13.3552 14.3489 13.1796 14.3474 13.0026C14.3458 12.8255 14.3091 12.6506 14.2392 12.4879C14.1693 12.3252 14.0677 12.1781 13.9404 12.0551L9.22572 7.34043L13.9404 2.62576Z" fill="#FB4242"/>
</svg>
