<svg width="18" height="18" viewBox="0 0 18 18" fill="none" xmlns="http://www.w3.org/2000/svg">
<path d="M15 6H12.8925C12.555 5.4 12.09 4.875 11.5275 4.5L12.75 3.3075L11.6925 2.25L10.065 3.8775C9.36762 3.70826 8.63988 3.70826 7.9425 3.8775L6.3075 2.25L5.25 3.3075L6.465 4.5C5.9025 4.875 5.445 5.4075 5.1075 6H3V7.5H4.5675C4.5225 7.7475 4.5 7.995 4.5 8.25V9H3V10.5H4.5V11.25C4.5 11.505 4.5225 11.7525 4.5675 12H3V13.5H5.1075C5.40326 14.0109 5.79682 14.4585 6.26566 14.8172C6.7345 15.1759 7.26944 15.4387 7.8399 15.5905C8.41036 15.7424 9.00516 15.7803 9.59028 15.7021C10.1754 15.624 10.7394 15.4312 11.25 15.135C11.9325 14.745 12.5025 14.175 12.8925 13.5H15V12H13.4325C13.4775 11.7525 13.5 11.505 13.5 11.25V10.5H15V9H13.5V8.25C13.5 7.995 13.4775 7.7475 13.4325 7.5H15V6ZM12 11.25C12 12.0456 11.6839 12.8087 11.1213 13.3713C10.5587 13.9339 9.79565 14.25 9 14.25C8.20435 14.25 7.44129 13.9339 6.87868 13.3713C6.31607 12.8087 6 12.0456 6 11.25V8.25C6 7.45435 6.31607 6.69129 6.87868 6.12868C7.44129 5.56607 8.20435 5.25 9 5.25C9.79565 5.25 10.5587 5.56607 11.1213 6.12868C11.6839 6.69129 12 7.45435 12 8.25V11.25ZM10.5 7.5V9H7.5V7.5H10.5ZM7.5 10.5H10.5V12H7.5V10.5Z" fill="#FF7B23"/>
</svg>
