<svg width="18" height="18" viewBox="0 0 18 18" fill="none" xmlns="http://www.w3.org/2000/svg">
<path d="M3.82353 4.7647H2.88235C2.38312 4.7647 1.90434 4.96302 1.55133 5.31603C1.19832 5.66904 1 6.14782 1 6.64706V15.1176C1 15.6169 1.19832 16.0957 1.55133 16.4487C1.90434 16.8017 2.38312 17 2.88235 17H11.3529C11.8522 17 12.331 16.8017 12.684 16.4487C13.037 16.0957 13.2353 15.6169 13.2353 15.1176V14.1765" stroke="#498DCE" stroke-width="2" stroke-linecap="round" stroke-linejoin="round"/>
<path d="M12.2943 2.88233L15.1178 5.70586M16.4214 4.3741C16.792 4.00342 17.0003 3.50067 17.0003 2.97645C17.0003 2.45223 16.792 1.94948 16.4214 1.5788C16.0507 1.20812 15.5479 0.999878 15.0237 0.999878C14.4995 0.999878 13.9967 1.20812 13.6261 1.5788L5.70605 9.47057V12.2941H8.52959L16.4214 4.3741Z" stroke="#498DCE" stroke-width="2" stroke-linecap="round" stroke-linejoin="round"/>
</svg>
