<svg width="54" height="54" viewBox="0 0 54 54" fill="none" xmlns="http://www.w3.org/2000/svg">
<path d="M29.25 6.75H18.45C15.93 6.75 14.67 6.75 13.707 7.2405C12.8603 7.67192 12.1719 8.36031 11.7405 9.207C11.25 10.17 11.25 11.43 11.25 13.95V40.05C11.25 42.57 11.25 43.83 11.7405 44.793C12.1719 45.6397 12.8603 46.3281 13.707 46.7595C14.6677 47.25 15.9277 47.25 18.4432 47.25H35.5568C38.0723 47.25 39.33 47.25 40.2907 46.7595C41.139 46.3275 41.8275 45.639 42.2595 44.793C42.75 43.83 42.75 42.5745 42.75 40.059V20.25M29.25 6.75C29.8935 6.75675 30.2985 6.7815 30.6877 6.87375C31.1497 6.98625 31.5833 7.16625 31.9883 7.41375C32.4428 7.69275 32.832 8.082 33.6083 8.8605L40.6417 15.8918C41.4202 16.6703 41.8072 17.0572 42.0862 17.5117C42.3337 17.9182 42.5137 18.3518 42.6262 18.8123C42.7162 19.2015 42.7432 19.6088 42.75 20.25M29.25 6.75V13.05C29.25 15.57 29.25 16.83 29.7405 17.793C30.1719 18.6397 30.8603 19.3281 31.707 19.7595C32.6677 20.25 33.9278 20.25 36.4433 20.25H42.75" stroke="#6B6B6B" stroke-width="2" stroke-linecap="round" stroke-linejoin="round"/>
<path d="M27 40.5V27M27 27L20.25 31.5M27 27L33.75 31.5" stroke="#498DCE" stroke-width="2" stroke-linecap="round" stroke-linejoin="round"/>
</svg>
