<svg width="20" height="20" viewBox="0 0 20 20" fill="none" xmlns="http://www.w3.org/2000/svg">
<path d="M8.79167 2.11C9.12981 1.82501 9.55779 1.66872 10 1.66872C10.4422 1.66872 10.8702 1.82501 11.2083 2.11L16.8333 6.85333C17.2558 7.21 17.5 7.73416 17.5 8.28666V16.045C17.5 16.4318 17.3464 16.8027 17.0729 17.0762C16.7994 17.3497 16.4284 17.5033 16.0417 17.5033H13.125C12.7382 17.5033 12.3673 17.3497 12.0938 17.0762C11.8203 16.8027 11.6667 16.4318 11.6667 16.045V11.8725C11.6667 11.8172 11.6447 11.7643 11.6056 11.7252C11.5666 11.6861 11.5136 11.6642 11.4583 11.6642H8.54167C8.48641 11.6642 8.43342 11.6861 8.39435 11.7252C8.35528 11.7643 8.33333 11.8172 8.33333 11.8725V16.045C8.33333 16.4318 8.17969 16.8027 7.9062 17.0762C7.63271 17.3497 7.26177 17.5033 6.875 17.5033H3.95833C3.76682 17.5033 3.57719 17.4656 3.40025 17.3923C3.22332 17.319 3.06255 17.2116 2.92714 17.0762C2.79172 16.9408 2.6843 16.78 2.61101 16.6031C2.53772 16.4261 2.5 16.2365 2.5 16.045V8.28666C2.5 7.73416 2.74417 7.21 3.16667 6.85333L8.79167 2.11ZM10.4025 3.06583C10.2898 2.97098 10.1473 2.91897 10 2.91897C9.85272 2.91897 9.71017 2.97098 9.5975 3.06583L3.9725 7.80833C3.90289 7.86693 3.84691 7.94002 3.80848 8.02249C3.77005 8.10497 3.75009 8.19484 3.75 8.28583V16.0442C3.75 16.1592 3.84333 16.2525 3.95833 16.2525H6.875C6.93025 16.2525 6.98324 16.2305 7.02231 16.1915C7.06138 16.1524 7.08333 16.0994 7.08333 16.0442V11.8717C7.08333 11.0658 7.73667 10.4133 8.54167 10.4133H11.4583C12.2633 10.4133 12.9167 11.0658 12.9167 11.8717V16.0442C12.9167 16.1592 13.01 16.2525 13.125 16.2525H16.0417C16.0969 16.2525 16.1499 16.2305 16.189 16.1915C16.2281 16.1524 16.25 16.0994 16.25 16.0442V8.28583C16.2499 8.19484 16.2299 8.10497 16.1915 8.02249C16.1531 7.94002 16.0971 7.86693 16.0275 7.80833L10.4025 3.06583Z" fill="#6B6B6B"/>
<circle cx="10" cy="7" r="2" fill="#498DCE"/>
</svg>
