<svg width="16" height="17" viewBox="0 0 16 17" fill="none" xmlns="http://www.w3.org/2000/svg">
<path d="M6.79167 1.11C7.12981 0.825014 7.55779 0.668716 8 0.668716C8.44221 0.668716 8.87019 0.825014 9.20833 1.11L14.8333 5.85333C15.2558 6.21 15.5 6.73416 15.5 7.28666V15.045C15.5 15.4318 15.3464 15.8027 15.0729 16.0762C14.7994 16.3497 14.4284 16.5033 14.0417 16.5033H11.125C10.7382 16.5033 10.3673 16.3497 10.0938 16.0762C9.82031 15.8027 9.66667 15.4318 9.66667 15.045V10.8725C9.66667 10.8172 9.64472 10.7643 9.60565 10.7252C9.56658 10.6861 9.51359 10.6642 9.45833 10.6642H6.54167C6.48641 10.6642 6.43342 10.6861 6.39435 10.7252C6.35528 10.7643 6.33333 10.8172 6.33333 10.8725V15.045C6.33333 15.4318 6.17969 15.8027 5.9062 16.0762C5.63271 16.3497 5.26177 16.5033 4.875 16.5033H1.95833C1.76682 16.5033 1.57719 16.4656 1.40025 16.3923C1.22332 16.319 1.06255 16.2116 0.927136 16.0762C0.791717 15.9408 0.684297 15.78 0.611009 15.6031C0.537721 15.4261 0.5 15.2365 0.5 15.045V7.28666C0.5 6.73416 0.744167 6.21 1.16667 5.85333L6.79167 1.11ZM8.4025 2.06583C8.28983 1.97098 8.14728 1.91897 8 1.91897C7.85272 1.91897 7.71017 1.97098 7.5975 2.06583L1.9725 6.80833C1.90289 6.86693 1.84691 6.94002 1.80848 7.02249C1.77005 7.10497 1.75009 7.19484 1.75 7.28583V15.0442C1.75 15.1592 1.84333 15.2525 1.95833 15.2525H4.875C4.93025 15.2525 4.98324 15.2305 5.02231 15.1915C5.06138 15.1524 5.08333 15.0994 5.08333 15.0442V10.8717C5.08333 10.0658 5.73667 9.41333 6.54167 9.41333H9.45833C10.2633 9.41333 10.9167 10.0658 10.9167 10.8717V15.0442C10.9167 15.1592 11.01 15.2525 11.125 15.2525H14.0417C14.0969 15.2525 14.1499 15.2305 14.189 15.1915C14.2281 15.1524 14.25 15.0994 14.25 15.0442V7.28583C14.2499 7.19484 14.2299 7.10497 14.1915 7.02249C14.1531 6.94002 14.0971 6.86693 14.0275 6.80833L8.4025 2.06583Z" fill="#6B6B6B"/>
</svg>
