<svg width="130" height="20" viewBox="0 0 130 20" fill="none" xmlns="http://www.w3.org/2000/svg">
<g clip-path="url(#clip0_1570_647)">
<path d="M16.7245 14.3652C15.7394 13.8074 14.9637 13.0292 14.3972 12.0306C13.83 11.032 13.5468 9.90107 13.5468 8.63851C13.5468 7.37594 13.83 6.24577 14.3972 5.24638C14.9645 4.24779 15.7402 3.46959 16.7245 2.91177C17.7088 2.35395 18.8055 2.07544 20.0147 2.07544C21.2239 2.07544 22.3387 2.35475 23.3238 2.91177C24.3081 3.46959 25.0814 4.24779 25.6421 5.24638C26.2028 6.24577 26.4835 7.37594 26.4835 8.63851C26.4835 9.90107 26.2028 11.032 25.6421 12.0306C25.0814 13.03 24.3081 13.8082 23.3238 14.3652C22.3387 14.9231 21.2363 15.2016 20.0147 15.2016C18.7932 15.2016 17.7088 14.9231 16.7245 14.3652ZM22.6326 13.4183C23.4051 12.9768 24.0159 12.343 24.4649 11.5156C24.914 10.6882 25.1381 9.72912 25.1381 8.63851C25.1381 7.54789 24.914 6.59128 24.4649 5.77029C24.0159 4.9493 23.4051 4.31802 22.6326 3.87645C21.8602 3.43487 20.9875 3.21449 20.0156 3.21449C19.0436 3.21449 18.171 3.43487 17.3985 3.87645C16.6252 4.31802 16.0152 4.9493 15.5662 5.77029C15.1172 6.59128 14.8931 7.54789 14.8931 8.63851C14.8931 9.72912 15.1172 10.6882 15.5662 11.5156C16.0152 12.343 16.6252 12.9776 17.3985 13.4183C18.171 13.8599 19.0436 14.0803 20.0156 14.0803C20.9875 14.0803 21.8602 13.8599 22.6326 13.4183Z" fill="black"/>
<path d="M43.7802 5.96324C44.5338 6.70512 44.9114 7.7804 44.9114 9.18988V15.0732H43.6209V9.3368C43.6209 8.24619 43.3525 7.41309 42.8173 6.8367C42.2812 6.26112 41.5522 5.97293 40.6295 5.97293C39.7068 5.97293 38.9031 6.28534 38.3301 6.91016C37.7563 7.53499 37.4698 8.44235 37.4698 9.63146V15.0732H36.1793V9.3368C36.1793 8.24619 35.9109 7.41309 35.3757 6.8367C34.8396 6.26112 34.1041 5.97293 33.169 5.97293C32.234 5.97293 31.4427 6.28534 30.8697 6.91016C30.2967 7.53499 30.0093 8.44235 30.0093 9.63146V15.0732H28.7008V5.03489H30.0093V6.76324C30.3336 6.13842 30.795 5.66294 31.3926 5.33842C31.991 5.0139 32.6576 4.85164 33.3932 4.85164C34.2781 4.85164 35.0539 5.05991 35.7213 5.47646C36.3878 5.89301 36.8714 6.50572 37.1702 7.3146C37.4444 6.51783 37.9147 5.90835 38.5822 5.48534C39.2487 5.06233 40.0056 4.85083 40.8536 4.85083C42.0505 4.85083 43.0258 5.22137 43.7794 5.96324H43.7802Z" fill="black"/>
<path d="M56.8328 10.5502H48.3634C48.4012 11.3106 48.5875 11.9597 48.9241 12.4989C49.2607 13.0382 49.7031 13.4458 50.2515 13.7219C50.7999 13.998 51.3983 14.1352 52.046 14.1352C52.8932 14.1352 53.6074 13.9326 54.187 13.5282C54.7665 13.1237 55.1499 12.5788 55.3371 11.8918H56.7203C56.4707 12.8727 55.938 13.6727 55.122 14.291C54.3052 14.9102 53.2807 15.2194 52.046 15.2194C51.0864 15.2194 50.226 15.0079 49.4659 14.5849C48.7057 14.1619 48.1106 13.5613 47.6804 12.7831C47.2502 12.0049 47.0352 11.0951 47.0352 10.0529C47.0352 9.01072 47.247 8.0977 47.6705 7.31385C48.0941 6.52999 48.6868 5.92858 49.447 5.51203C50.2072 5.09548 51.0732 4.88721 52.046 4.88721C53.0188 4.88721 53.8684 5.09548 54.5982 5.51203C55.3272 5.92858 55.8887 6.48963 56.2811 7.19437C56.6735 7.89911 56.8705 8.68055 56.8705 9.53867C56.8705 9.98024 56.8582 10.3169 56.8328 10.5502ZM55.085 7.58993C54.7673 7.06279 54.3339 6.66481 53.7855 6.39518C53.2372 6.12555 52.6387 5.99074 51.991 5.99074C51.0191 5.99074 50.1899 6.2975 49.5045 6.91021C48.819 7.52293 48.4389 8.38751 48.3642 9.50234H55.5439C55.5562 8.75482 55.4036 8.11708 55.0859 7.58993H55.085Z" fill="black"/>
<path d="M66.0492 5.5498C66.7601 5.99138 67.2707 6.5492 67.5826 7.22246V5.03477H68.8912V15.3306C68.8912 16.2501 68.6884 17.0646 68.2837 17.7758C67.8782 18.4862 67.3142 19.0352 66.5918 19.421C65.8686 19.8069 65.046 19.9999 64.1241 19.9999C62.8156 19.9999 61.7279 19.6931 60.8618 19.0804C59.9949 18.4677 59.4564 17.6338 59.2446 16.5803H60.5351C60.7592 17.2794 61.1861 17.8364 61.8157 18.2537C62.4454 18.6703 63.2145 18.8786 64.1249 18.8786C64.785 18.8786 65.3777 18.7405 65.9006 18.4652C66.4235 18.19 66.8356 17.7815 67.1344 17.2422C67.4332 16.703 67.5835 16.0652 67.5835 15.3298V12.8475C67.2592 13.5345 66.7453 14.1012 66.041 14.5484C65.3366 14.9956 64.5042 15.2192 63.5446 15.2192C62.5849 15.2192 61.7714 15.0053 61.0301 14.5758C60.2888 14.1472 59.7084 13.5401 59.2914 12.7555C58.8736 11.9716 58.665 11.0642 58.665 10.0342C58.665 9.00409 58.8736 8.10076 59.2914 7.32256C59.7084 6.54435 60.288 5.94375 61.0301 5.52074C61.7714 5.09773 62.6095 4.88623 63.5446 4.88623C64.4796 4.88623 65.3391 5.10661 66.05 5.54819L66.0492 5.5498ZM67.0778 7.92155C66.7412 7.30883 66.2831 6.83658 65.7036 6.5056C65.124 6.17463 64.4853 6.00914 63.7867 6.00914C63.0881 6.00914 62.4158 6.16817 61.842 6.48704C61.269 6.80591 60.8167 7.26847 60.4866 7.87553C60.1558 8.4826 59.9908 9.20268 59.9908 10.0358C59.9908 10.8689 60.1558 11.5768 60.4866 12.196C60.8167 12.8152 61.269 13.2866 61.842 13.612C62.415 13.9365 63.0635 14.0996 63.7867 14.0996C64.51 14.0996 65.124 13.9341 65.7036 13.6031C66.2831 13.2721 66.7412 12.8007 67.0778 12.1871C67.4143 11.5744 67.5826 10.8632 67.5826 10.0543C67.5826 9.24546 67.4143 8.53507 67.0778 7.92155Z" fill="black"/>
<path d="M71.7356 7.32353C72.1535 6.54533 72.7331 5.94472 73.4743 5.52172C74.2156 5.09871 75.0538 4.88721 75.9888 4.88721C76.9238 4.88721 77.7989 5.10759 78.5033 5.54916C79.2076 5.99074 79.7149 6.55421 80.0269 7.24039V5.03413H81.3354V15.0725H80.0269V12.8477C79.7026 13.5346 79.1887 14.1013 78.4844 14.5486C77.78 14.9958 76.9419 15.2194 75.9699 15.2194C74.998 15.2194 74.2156 15.0055 73.4735 14.576C72.7322 14.1473 72.1518 13.5403 71.7348 12.7556C71.317 11.9718 71.1085 11.0644 71.1085 10.0343C71.1085 9.00426 71.317 8.10093 71.7348 7.32273L71.7356 7.32353ZM79.5228 7.92091C79.1863 7.3082 78.7282 6.83595 78.1486 6.50497C77.5691 6.17399 76.9304 6.0085 76.2326 6.0085C75.5348 6.0085 74.8609 6.16753 74.2879 6.4864C73.7149 6.80527 73.2625 7.26783 72.9325 7.8749C72.6017 8.48196 72.4367 9.20204 72.4367 10.0351C72.4367 10.8682 72.6017 11.5762 72.9325 12.1954C73.2625 12.8146 73.7149 13.286 74.2879 13.6113C74.8609 13.9358 75.5094 14.0989 76.2326 14.0989C76.9558 14.0989 77.5691 13.9334 78.1486 13.6024C78.7282 13.2715 79.1863 12.8 79.5228 12.1865C79.8594 11.5738 80.0277 10.8626 80.0277 10.0537C80.0277 9.24483 79.8594 8.53443 79.5228 7.92091Z" fill="black"/>
<path d="M92.1354 9.5393C92.646 10.1399 92.9021 10.8382 92.9021 11.635C92.9021 12.2848 92.7371 12.8701 92.4063 13.3908C92.0763 13.9123 91.5927 14.3223 90.9574 14.6226C90.322 14.9229 89.561 15.0731 88.6769 15.0731H84.152V2.22144H88.5455C89.8664 2.22144 90.8728 2.52174 91.5648 3.12234C92.2569 3.72295 92.6025 4.50115 92.6025 5.45695C92.6025 6.25373 92.3841 6.90035 91.9482 7.39681C91.5115 7.89328 90.9508 8.2396 90.2653 8.43576C91.0009 8.57058 91.6239 8.93869 92.1354 9.5393ZM85.4605 7.90297H88.5078C89.3927 7.90297 90.0749 7.69792 90.5551 7.28703C91.0345 6.87613 91.2751 6.30943 91.2751 5.58612C91.2751 4.86281 91.0353 4.3179 90.5551 3.91266C90.0749 3.50822 89.3738 3.30559 88.4519 3.30559H85.4605V7.90216V7.90297ZM90.7981 13.327C91.3276 12.8854 91.5927 12.2792 91.5927 11.5066C91.5927 10.734 91.3153 10.1181 90.7603 9.65877C90.2054 9.19944 89.4608 8.96937 88.5266 8.96937H85.4605V13.9881H88.5824C89.5298 13.9881 90.2678 13.7678 90.7981 13.3262V13.327Z" fill="black"/>
<path d="M96.4468 2.22144V15.0723H95.1382V2.22144H96.4468Z" fill="black"/>
<path d="M99.2724 7.32353C99.6902 6.54533 100.27 5.94472 101.011 5.52172C101.752 5.09871 102.591 4.88721 103.526 4.88721C104.461 4.88721 105.336 5.10759 106.04 5.54916C106.744 5.99074 107.252 6.55421 107.564 7.24039V5.03413H108.872V15.0725H107.564V12.8477C107.239 13.5346 106.725 14.1013 106.021 14.5486C105.317 14.9958 104.479 15.2194 103.507 15.2194C102.535 15.2194 101.752 15.0055 101.01 14.576C100.269 14.1473 99.6886 13.5403 99.2716 12.7556C98.8537 11.9718 98.6452 11.0644 98.6452 10.0343C98.6452 9.00426 98.8537 8.10093 99.2716 7.32273L99.2724 7.32353ZM107.06 7.92091C106.723 7.3082 106.265 6.83595 105.685 6.50497C105.106 6.17399 104.467 6.0085 103.769 6.0085C103.072 6.0085 102.398 6.16753 101.825 6.4864C101.252 6.80527 100.799 7.26783 100.469 7.8749C100.138 8.48196 99.9734 9.20204 99.9734 10.0351C99.9734 10.8682 100.138 11.5762 100.469 12.1954C100.799 12.8146 101.252 13.286 101.825 13.6113C102.398 13.9358 103.046 14.0989 103.769 14.0989C104.493 14.0989 105.106 13.9334 105.685 13.6024C106.265 13.2715 106.723 12.8 107.06 12.1865C107.396 11.5738 107.564 10.8626 107.564 10.0537C107.564 9.24483 107.396 8.53443 107.06 7.92091Z" fill="black"/>
<path d="M111.726 7.32353C112.15 6.54533 112.736 5.94472 113.484 5.52172C114.232 5.09871 115.086 4.88721 116.045 4.88721C117.304 4.88721 118.341 5.19397 119.158 5.80668C119.974 6.4194 120.501 7.2533 120.738 8.30678H119.336C119.161 7.58347 118.784 7.01677 118.204 6.60588C117.625 6.19498 116.905 5.98993 116.044 5.98993C115.359 5.98993 114.742 6.14331 114.193 6.44927C113.645 6.75603 113.212 7.21213 112.894 7.8192C112.576 8.42626 112.417 9.17056 112.417 10.0529C112.417 10.9352 112.576 11.6828 112.894 12.2955C113.212 12.9082 113.645 13.3683 114.193 13.6743C114.742 13.9811 115.359 14.1336 116.044 14.1336C116.905 14.1336 117.624 13.9286 118.204 13.5177C118.784 13.1068 119.161 12.5344 119.336 11.799H120.738C120.501 12.8283 119.971 13.6557 119.148 14.2814C118.326 14.9062 117.291 15.2186 116.044 15.2186C115.085 15.2186 114.231 15.0071 113.483 14.5841C112.735 14.1611 112.149 13.5605 111.726 12.7823C111.302 12.0041 111.09 11.0943 111.09 10.0521C111.09 9.00991 111.302 8.10012 111.726 7.32192L111.726 7.32353Z" fill="black"/>
<path d="M128.224 15.0731L124.018 10.5686V15.0731H122.709V2.22144H124.018V9.52073L128.132 5.03476H129.964L125.121 10.0358L130.001 15.0731H128.224Z" fill="black"/>
<path d="M7.02618 3.45508H3.51349V6.91098H7.02618V3.45508Z" fill="black"/>
<path d="M3.51269 0H0V3.4559H3.51269V0Z" fill="black"/>
<path d="M10.5414 6.91089H7.02704V10.3652H10.5414V6.91089Z" fill="black"/>
<path d="M7.02618 10.3652H3.51349V13.8211H7.02618V10.3652Z" fill="black"/>
<path d="M3.51269 13.8213H0V17.2772H3.51269V13.8213Z" fill="black"/>
</g>
<defs>
<clipPath id="clip0_1570_647">
<rect width="130" height="20" fill="white"/>
</clipPath>
</defs>
</svg>
