<svg width="16" height="16" viewBox="0 0 16 16" fill="none" xmlns="http://www.w3.org/2000/svg">
<path d="M2.55554 15H11.8889C12.714 15 13.5053 14.6722 14.0888 14.0888C14.6722 13.5053 15 12.714 15 11.8889V2.55556C15 2.143 14.8361 1.74733 14.5444 1.45561C14.2527 1.16389 13.857 1 13.4444 1H5.66665C5.25409 1 4.85843 1.16389 4.56671 1.45561C4.27499 1.74733 4.1111 2.143 4.1111 2.55556V12.6667C4.1111 13.9554 3.84432 15 2.55554 15Z" stroke="#6B6B6B" stroke-width="1.2" stroke-linecap="round" stroke-linejoin="round"/>
<path d="M1 6.44444C1 6.03188 1.16389 5.63622 1.45561 5.3445C1.74733 5.05277 2.143 4.88889 2.55556 4.88889H4.11111V13.0556C4.11111 14.1289 3.62889 15 2.55556 15C1.48222 15 1 14.1289 1 13.0556V6.44444Z" stroke="#6B6B6B" stroke-width="1.2" stroke-linecap="round" stroke-linejoin="round"/>
<path d="M8.00001 5.66667C8.42956 5.66667 8.77778 5.31845 8.77778 4.88889C8.77778 4.45934 8.42956 4.11111 8.00001 4.11111C7.57045 4.11111 7.22223 4.45934 7.22223 4.88889C7.22223 5.31845 7.57045 5.66667 8.00001 5.66667Z" stroke="#6B6B6B" stroke-width="1.2" stroke-linecap="round"/>
<path d="M7.22223 9.55556H11.8889M7.22223 11.8889H9.55556" stroke="#6B6B6B" stroke-width="1.2" stroke-linecap="round"/>
<circle cx="8.1875" cy="5.1875" r="2.1875" fill="#498DCE"/>
</svg>
