<svg width="18" height="18" viewBox="0 0 18 18" fill="none" xmlns="http://www.w3.org/2000/svg">
<path fill-rule="evenodd" clip-rule="evenodd" d="M16.5 5.2425V8.25C16.5 8.39831 16.456 8.54329 16.3736 8.66659C16.2912 8.7899 16.174 8.88601 16.037 8.94276C15.9 8.99951 15.7492 9.01436 15.6038 8.98544C15.4583 8.95651 15.3247 8.88511 15.2198 8.78025L14.25 7.8105L10.2803 11.7802C10.1396 11.9209 9.9489 11.9998 9.75003 11.9998C9.55116 11.9998 9.36043 11.9209 9.21978 11.7802L6.75003 9.3105L2.78028 13.2803C2.63883 13.4169 2.44938 13.4925 2.25273 13.4908C2.05608 13.489 1.86797 13.4102 1.72892 13.2711C1.58986 13.1321 1.51098 12.9439 1.50928 12.7473C1.50757 12.5507 1.58316 12.3612 1.71978 12.2197L6.21978 7.71975C6.36043 7.57915 6.55116 7.50016 6.75003 7.50016C6.9489 7.50016 7.13963 7.57915 7.28028 7.71975L9.75003 10.1895L13.1895 6.75L12.2198 5.78025C12.1149 5.67536 12.0435 5.54174 12.0146 5.39627C11.9857 5.25081 12.0005 5.10003 12.0573 4.96301C12.114 4.82598 12.2101 4.70886 12.3334 4.62645C12.4567 4.54404 12.6017 4.50003 12.75 4.5H15.75L15.786 4.50075C15.9776 4.50922 16.1586 4.59103 16.2915 4.72925C16.4244 4.86746 16.4991 5.0515 16.5 5.24325" fill="#A5F167"/>
</svg>
