<svg width="18" height="18" viewBox="0 0 18 18" fill="none" xmlns="http://www.w3.org/2000/svg">
<path d="M4.72053 9.5441L3.24762 11.0171C3.16913 11.0956 3.10688 11.1887 3.0644 11.2913C3.02192 11.3938 3.00006 11.5037 3.00006 11.6147C3.00006 11.7257 3.02192 11.8356 3.0644 11.9382C3.10688 12.0407 3.16913 12.1339 3.24762 12.2124L5.78765 14.7524C5.9463 14.9107 6.16122 14.9995 6.3853 14.9995C6.60937 14.9995 6.82429 14.9107 6.98294 14.7524L8.45592 13.2795L7.85857 12.6822L6.38569 14.1551L6.3853 14.1548L3.84529 11.6149L5.31809 10.1418L4.72053 9.5441ZM14.7524 5.78763L12.2124 3.24757C12.0538 3.08931 11.8388 3.00043 11.6148 3.00043C11.3907 3.00043 11.1757 3.08931 11.0171 3.24757L9.54413 4.7205L10.1418 5.31806L11.6149 3.84524L14.1549 6.38527L12.682 7.85823L13.2795 8.4559L14.7524 6.98302C14.8309 6.90453 14.8932 6.81136 14.9357 6.70881C14.9781 6.60627 15 6.49636 15 6.38536C15 6.27437 14.9781 6.16446 14.9357 6.06192C14.8932 5.95937 14.8309 5.86619 14.7524 5.78771V5.78763ZM8.60307 7.71935L9.01286 7.30956L9.42263 7.71935L9.01286 8.12915L8.60307 7.71935ZM8.60307 10.2807L9.01286 9.87088L9.42263 10.2807L9.01286 10.6904L8.60307 10.2807ZM9.88366 8.99998L10.2935 8.59018L10.7032 8.99998L10.2935 9.40974L9.88366 8.99998ZM7.32242 9L7.73219 8.59021L8.14198 9L7.73219 9.4098L7.32242 9Z" fill="#83C8EE"/>
<path d="M10.7247 14.4597C10.963 14.6947 11.2846 14.826 11.6193 14.8249C11.954 14.8238 12.2747 14.6903 12.5113 14.4536L14.4537 12.5112C14.6914 12.2735 14.825 11.951 14.825 11.6147C14.825 11.2785 14.6914 10.956 14.4537 10.7183L14.2486 10.5132L7.90955 4.17411L7.28172 3.54644C7.04396 3.30868 6.72149 3.17511 6.38525 3.17511C6.04901 3.17511 5.72653 3.30868 5.48877 3.54644L3.54638 5.48881C3.30862 5.72657 3.17505 6.04904 3.17505 6.38528C3.17505 6.72153 3.30862 7.044 3.54638 7.28176L4.38535 8.12076L10.7182 14.4536C10.7203 14.4556 10.7225 14.4576 10.7247 14.4597ZM4.14405 6.68412C4.1048 6.64487 4.07367 6.59829 4.05243 6.54701C4.03119 6.49574 4.02026 6.44078 4.02026 6.38528C4.02026 6.32978 4.03119 6.27483 4.05243 6.22355C4.07367 6.17228 4.1048 6.12569 4.14405 6.08645L6.08641 4.14408C6.12566 4.10484 6.17225 4.07371 6.22352 4.05247C6.27479 4.03123 6.32975 4.0203 6.38525 4.0203C6.44075 4.0203 6.4957 4.03123 6.54698 4.05247C6.59825 4.07371 6.64484 4.10484 6.68408 4.14408L8.40234 5.86234L5.8623 8.40237L4.14405 6.68412ZM6.45994 9.00001L8.99998 6.45998L11.5401 9.00001L9.00022 11.5402L6.45994 9.00001ZM12.1377 9.59766L13.8559 11.3159C13.8952 11.3552 13.9263 11.4017 13.9475 11.453C13.9688 11.5043 13.9797 11.5592 13.9797 11.6147C13.9797 11.6702 13.9688 11.7252 13.9475 11.7765C13.9263 11.8277 13.8952 11.8743 13.8559 11.9136L11.9135 13.8559C11.8743 13.8952 11.8277 13.9263 11.7764 13.9476C11.7252 13.9688 11.6702 13.9797 11.6147 13.9797C11.5592 13.9797 11.5043 13.9688 11.453 13.9476C11.4017 13.9263 11.3551 13.8952 11.3159 13.8559L9.59762 12.1377L12.1377 9.59766Z" fill="#83C8EE"/>
</svg>
