<svg width="24" height="24" viewBox="0 0 24 24" fill="none" xmlns="http://www.w3.org/2000/svg">
<path d="M6.29408 12.7255L4.3302 14.6895C4.22555 14.7941 4.14254 14.9183 4.08591 15.0551C4.02927 15.1918 4.00012 15.3383 4.00012 15.4863C4.00012 15.6343 4.02927 15.7809 4.08591 15.9176C4.14254 16.0543 4.22555 16.1786 4.3302 16.2832L7.71691 19.67C7.92844 19.8809 8.21501 19.9994 8.51377 19.9994C8.81253 19.9994 9.0991 19.8809 9.31062 19.67L11.2746 17.706L10.4781 16.9096L8.5143 18.8735L8.51377 18.8731L5.12709 15.4865L7.09083 13.5225L6.29408 12.7255ZM19.67 7.71688L16.2832 4.33013C16.0717 4.11912 15.7852 4.00061 15.4864 4.00061C15.1876 4.00061 14.901 4.11912 14.6895 4.33013L12.7255 6.29404L13.5225 7.09079L15.4866 5.12702L18.8732 8.51374L16.9093 10.4777L17.7061 11.2746L19.67 9.31073C19.7746 9.20608 19.8576 9.08185 19.9142 8.94512C19.9709 8.8084 20 8.66185 20 8.51386C20 8.36587 19.9709 8.21932 19.9142 8.08259C19.8576 7.94587 19.7746 7.82163 19.67 7.71699V7.71688ZM11.4708 10.2925L12.0172 9.74612L12.5635 10.2925L12.0172 10.8389L11.4708 10.2925ZM11.4708 13.7076L12.0172 13.1612L12.5635 13.7076L12.0172 14.2539L11.4708 13.7076ZM13.1783 12L13.7247 11.4536L14.271 12L13.7247 12.5464L13.1783 12ZM9.76327 12L10.3096 11.4537L10.856 12L10.3096 12.5464L9.76327 12Z" fill="#83C8EE"/>
<path d="M14.2996 19.2796C14.6173 19.593 15.0461 19.7681 15.4924 19.7666C15.9386 19.765 16.3662 19.5871 16.6818 19.2715L19.2716 16.6817C19.5886 16.3647 19.7667 15.9347 19.7667 15.4864C19.7667 15.038 19.5886 14.6081 19.2716 14.2911L18.9982 14.0176L10.5461 5.56552L9.70896 4.72863C9.39195 4.41162 8.96199 4.23352 8.51366 4.23352C8.06534 4.23352 7.63538 4.41162 7.31836 4.72863L4.72851 7.31845C4.41149 7.63547 4.2334 8.06543 4.2334 8.51375C4.2334 8.96208 4.41149 9.39204 4.72851 9.70905L5.84714 10.8277L14.291 19.2715C14.2938 19.2742 14.2967 19.2768 14.2996 19.2796ZM5.5254 8.9122C5.47307 8.85987 5.43156 8.79776 5.40324 8.72939C5.37492 8.66102 5.36035 8.58775 5.36035 8.51375C5.36035 8.43975 5.37492 8.36648 5.40324 8.29811C5.43156 8.22975 5.47307 8.16763 5.5254 8.11531L8.11522 5.52548C8.16754 5.47316 8.22966 5.43165 8.29803 5.40333C8.36639 5.37501 8.43967 5.36044 8.51366 5.36044C8.58766 5.36044 8.66094 5.37501 8.7293 5.40333C8.79767 5.43165 8.85979 5.47316 8.91211 5.52548L11.2031 7.81649L7.8164 11.2032L5.5254 8.9122ZM8.61326 12.0001L12 8.61334L15.3868 12.0001L12.0003 15.3869L8.61326 12.0001ZM16.1835 12.7969L18.4745 15.0879C18.5269 15.1402 18.5684 15.2024 18.5967 15.2707C18.625 15.3391 18.6396 15.4124 18.6396 15.4864C18.6396 15.5604 18.625 15.6336 18.5967 15.702C18.5684 15.7704 18.5269 15.8325 18.4745 15.8848L15.8847 18.4746C15.8324 18.527 15.7703 18.5685 15.7019 18.5968C15.6336 18.6251 15.5603 18.6397 15.4863 18.6397C15.4123 18.6397 15.339 18.6251 15.2706 18.5968C15.2023 18.5685 15.1402 18.527 15.0878 18.4746L12.7968 16.1836L16.1835 12.7969Z" fill="#83C8EE"/>
</svg>
