<svg width="24" height="24" viewBox="0 0 24 24" fill="none" xmlns="http://www.w3.org/2000/svg">
<path d="M18.3802 6.81696C18.5503 7.00446 18.6962 7.25893 18.8177 7.58036C18.9392 7.90179 19 8.19643 19 8.46429V20.0357C19 20.3036 18.9149 20.5312 18.7448 20.7188C18.5747 20.9062 18.3681 21 18.125 21H5.875C5.63194 21 5.42535 20.9062 5.25521 20.7188C5.08507 20.5312 5 20.3036 5 20.0357V3.96429C5 3.69643 5.08507 3.46875 5.25521 3.28125C5.42535 3.09375 5.63194 3 5.875 3H14.0417C14.2847 3 14.5521 3.06696 14.8438 3.20089C15.1354 3.33482 15.3663 3.49554 15.5365 3.68304L18.3802 6.81696ZM14.3333 4.36607V8.14286H17.7604C17.6997 7.94866 17.6328 7.81138 17.5599 7.73103L14.707 4.58705C14.6341 4.5067 14.5095 4.43304 14.3333 4.36607ZM17.8333 19.7143V9.42857H14.0417C13.7986 9.42857 13.592 9.33482 13.4219 9.14732C13.2517 8.95982 13.1667 8.73214 13.1667 8.46429V4.28571H6.16667V19.7143H17.8333Z" fill="#498DCE"/>
<path fill-rule="evenodd" clip-rule="evenodd" d="M10.9313 8.81352C10.7679 8.86467 10.6633 8.96828 10.6332 9.08304C10.5716 9.31386 10.6332 9.56174 10.8062 9.87192C10.8924 10.0254 10.9977 10.1808 11.1139 10.3473L11.1768 10.4372L11.276 10.5782L11.289 10.5336L11.3478 10.3329C11.4153 10.113 11.4677 9.89006 11.5051 9.66404C11.566 9.24304 11.4976 8.99647 11.2938 8.83778C11.2391 8.79515 11.1037 8.75974 10.9313 8.81352ZM10.9689 11.5362L10.7843 11.2989L10.7624 11.2674C10.6838 11.1428 10.5962 11.0182 10.5012 10.8838L10.4328 10.7861C10.307 10.6106 10.1901 10.4294 10.0827 10.2431C9.87065 9.86405 9.70105 9.39977 9.83783 8.88762C9.95409 8.45219 10.3152 8.17874 10.6769 8.06529C11.0305 7.95512 11.4798 7.96889 11.8122 8.22726C12.3538 8.64958 12.3921 9.25878 12.3175 9.7729C12.276 10.0331 12.2164 10.2902 12.139 10.5428L12.0734 10.7657C12.0223 10.9327 11.9749 11.1008 11.9312 11.27L11.8853 11.3972L12.8373 12.6196C13.2818 12.5684 13.7701 12.5376 14.2255 12.5691C14.7514 12.6045 15.3163 12.7278 15.7013 13.0779C15.8252 13.2012 15.9149 13.3523 15.962 13.5174C16.0092 13.6825 16.0125 13.8563 15.9715 14.0229C15.8914 14.3377 15.661 14.6 15.343 14.7593C14.6694 15.097 14.0423 14.8282 13.5765 14.4865C13.212 14.2196 12.8619 13.8472 12.5672 13.5337L12.496 13.4589C12.243 13.4963 12.0036 13.5383 11.8094 13.5737C11.6008 13.6111 11.3417 13.6576 11.0599 13.718L10.9566 14.0085C10.8996 14.1344 10.8454 14.2612 10.7939 14.3888L10.7104 14.5875C10.6262 14.7921 10.5287 14.9914 10.4184 15.1843C10.1928 15.5633 9.83236 15.9659 9.22782 15.9981C8.41811 16.0413 7.86965 15.3521 8.02694 14.6157L8.03104 14.598C8.16782 14.0793 8.64242 13.739 9.1013 13.514C9.50957 13.3134 9.98623 13.1652 10.4287 13.0543L10.9689 11.5362ZM11.5639 12.3002L11.3676 12.853L11.6556 12.8006L11.6583 12.7999L11.9182 12.754L11.5639 12.3002ZM13.5061 13.3521C13.6935 13.5422 13.8802 13.7193 14.0744 13.8616C14.4505 14.137 14.7172 14.1849 14.9627 14.0616C15.0995 13.9927 15.157 13.9036 15.1741 13.8373C15.1824 13.8018 15.1817 13.7649 15.1722 13.7297C15.1627 13.6944 15.1446 13.6619 15.1194 13.6347C14.9436 13.4852 14.6256 13.3855 14.1674 13.354C13.9472 13.3406 13.7264 13.3399 13.5061 13.3521ZM10.0833 13.9731C9.86587 14.0445 9.65934 14.1239 9.47469 14.2144C9.07326 14.4111 8.87973 14.6105 8.82912 14.7829C8.77578 15.0551 8.96042 15.2243 9.182 15.2125C9.36664 15.2026 9.52804 15.0918 9.70584 14.7934C9.79885 14.6308 9.88046 14.4631 9.95067 14.2905L10.0238 14.116L10.0833 13.9731Z" fill="#498DCE"/>
</svg>
