<svg width="18" height="18" viewBox="0 0 18 18" fill="none" xmlns="http://www.w3.org/2000/svg">
<path d="M14.0485 6.30611L10.8342 3.195C10.7702 3.13311 10.6942 3.08403 10.6106 3.05058C10.527 3.01712 10.4374 2.99993 10.3469 3H4.83673C4.53228 3 4.24029 3.11706 4.025 3.32544C3.80972 3.53381 3.68878 3.81643 3.68878 4.11111V7.88889C3.68878 8.0657 3.76134 8.23527 3.89051 8.36029C4.01968 8.48532 4.19488 8.55556 4.37755 8.55556C4.56023 8.55556 4.73542 8.48532 4.86459 8.36029C4.99376 8.23527 5.06633 8.0657 5.06633 7.88889V4.33333H9.42857V7C9.42857 7.17681 9.50114 7.34638 9.63031 7.4714C9.75948 7.59643 9.93467 7.66667 10.1173 7.66667H12.8724V13.6667H8.7398C8.55712 13.6667 8.38193 13.7369 8.25276 13.8619C8.12359 13.987 8.05102 14.1565 8.05102 14.3333C8.05102 14.5101 8.12359 14.6797 8.25276 14.8047C8.38193 14.9298 8.55712 15 8.7398 15H13.102C13.4065 15 13.6985 14.8829 13.9138 14.6746C14.1291 14.4662 14.25 14.1836 14.25 13.8889V6.77778C14.2501 6.6902 14.2323 6.60347 14.1977 6.52254C14.1632 6.44161 14.1125 6.36807 14.0485 6.30611ZM10.8061 5.05556L12.1263 6.33333H10.8061V5.05556ZM4.37755 11.8889C4.37755 12.3706 4.69324 12.7778 5.06633 12.7778C5.14613 12.7753 5.22458 12.7571 5.2969 12.7243C5.36922 12.6915 5.43392 12.6449 5.48705 12.5872C5.6134 12.4595 5.78701 12.3855 5.96968 12.3817C6.15235 12.3778 6.32911 12.4444 6.4611 12.5667C6.59308 12.689 6.66946 12.857 6.67345 13.0338C6.67743 13.2106 6.60868 13.3817 6.48233 13.5094C6.30112 13.6978 6.08203 13.8484 5.83853 13.9518C5.59503 14.0553 5.33225 14.1095 5.06633 14.1111C3.92698 14.1111 3 13.1144 3 11.8889C3 10.6633 3.92698 9.66667 5.06633 9.66667C5.33225 9.66828 5.59503 9.72249 5.83853 9.82595C6.08203 9.92941 6.30112 10.08 6.48233 10.2683C6.60868 10.3961 6.67743 10.5672 6.67345 10.744C6.66946 10.9208 6.59308 11.0888 6.4611 11.2111C6.32911 11.3334 6.15235 11.3999 5.96968 11.3961C5.78701 11.3922 5.6134 11.3183 5.48705 11.1906C5.43392 11.1329 5.36922 11.0862 5.2969 11.0535C5.22458 11.0207 5.14613 11.0025 5.06633 11C4.69324 11 4.37755 11.4072 4.37755 11.8889Z" fill="#83C8EE"/>
</svg>
