<svg width="12" height="14" viewBox="0 0 12 14" fill="none" xmlns="http://www.w3.org/2000/svg">
  <path
    d="M4.8877 1.75C4.72861 1.75 4.57603 1.80657 4.46354 1.90726C4.35104 2.00796 4.28784 2.14453 4.28784 2.28693C4.28784 2.42933 4.35104 2.56591 4.46354 2.6666C4.57603 2.76729 4.72861 2.82386 4.8877 2.82386H6.48734C6.64643 2.82386 6.79901 2.76729 6.91151 2.6666C7.024 2.56591 7.0872 2.42933 7.0872 2.28693C7.0872 2.14453 7.024 2.00796 6.91151 1.90726C6.79901 1.80657 6.64643 1.75 6.48734 1.75H4.8877Z"
    fill="#6B6B6B" />
  <path
    d="M4.62605 0H6.74895C7.45875 0 8.02165 2.66835e-08 8.4747 0.0371163C8.9388 0.0748838 9.33075 0.154326 9.68955 0.336651C10.2704 0.63348 10.7426 1.10692 11.0383 1.68912C11.221 2.04726 11.3003 2.44056 11.3379 2.90549C11.375 3.35935 11.375 3.92326 11.375 4.63433V9.36567C11.375 10.0767 11.375 10.6407 11.3379 11.0945C11.3003 11.5594 11.2209 11.9521 11.0389 12.3115C10.7428 12.8933 10.2705 13.3663 9.68955 13.6627C9.33075 13.8457 8.9388 13.9251 8.4747 13.9629C8.02165 14 7.45875 14 6.74895 14H4.62605C3.91625 14 3.35335 14 2.9003 13.9629C2.4362 13.9251 2.04425 13.8457 1.6861 13.6633C1.10509 13.3668 0.632719 12.8936 0.3367 12.3115C0.15405 11.9521 0.0747499 11.5594 0.0370499 11.0945C-5.08502e-08 10.6407 0 10.0767 0 9.36567V4.63433C0 3.92326 -5.08502e-08 3.35935 0.0370499 2.90549C0.0747499 2.44056 0.15405 2.04791 0.33605 1.68912C0.632239 1.10697 1.10485 0.633741 1.6861 0.337302C2.0436 0.154326 2.4362 0.0748838 2.9003 0.0371163C3.35335 2.66835e-08 3.91625 0 4.62605 0ZM2.9796 1.0106C2.5766 1.04316 2.32635 1.10633 2.1281 1.20726C1.73071 1.41013 1.40761 1.73381 1.2051 2.13191C1.10435 2.33051 1.04195 2.58121 1.0088 2.98493C0.97565 3.39516 0.975 3.9187 0.975 4.65581V9.34419C0.975 10.082 0.975 10.6055 1.0088 11.0151V11.0209C1.1381 10.6672 1.34693 10.348 1.61914 10.088C1.89135 9.82808 2.21963 9.63439 2.57855 9.52195L3.21815 9.31684C3.32908 9.28167 3.44045 9.24868 3.55225 9.21786C3.9416 9.11172 4.30885 9.24065 4.56365 9.40735C4.80285 9.56428 5.19935 9.75833 5.6875 9.75833C6.175 9.75833 6.57215 9.56428 6.812 9.40735C7.06615 9.24065 7.4334 9.11172 7.8221 9.21786C7.93433 9.24825 8.04592 9.28124 8.15685 9.31684L8.79645 9.5226C9.15519 9.63506 9.48329 9.82869 9.75537 10.0885C10.0275 10.3483 10.2362 10.6674 10.3656 11.0209L10.3662 11.0151C10.3993 10.6048 10.4 10.082 10.4 9.34419V4.65581C10.4 3.9187 10.4 3.39451 10.3662 2.98493C10.3337 2.58121 10.2706 2.33051 10.1699 2.13191C9.96739 1.73381 9.64429 1.41013 9.2469 1.20726C9.04865 1.10633 8.7984 1.04381 8.3954 1.0106C7.9859 0.977395 7.4633 0.976744 6.7275 0.976744H4.6475C3.9117 0.976744 3.38845 0.976744 2.9796 1.0106ZM2.1281 12.7927C2.32635 12.8937 2.5766 12.9562 2.9796 12.9894C3.3891 13.0226 3.9117 13.0233 4.6475 13.0233H6.7275C7.46395 13.0233 7.98655 13.0233 8.3954 12.9894C8.7984 12.9568 9.04865 12.8937 9.2469 12.7927C9.42023 12.7033 9.57775 12.5933 9.71945 12.4626L9.4835 11.465C9.36 10.9975 8.99405 10.6113 8.4994 10.4525L7.85915 10.2473C7.76208 10.2161 7.66415 10.187 7.56535 10.1601C7.5335 10.1516 7.45485 10.1529 7.345 10.2252C7.0135 10.442 6.4311 10.7351 5.6875 10.7351C4.9439 10.7351 4.3615 10.442 4.03 10.2252C3.9195 10.1529 3.8415 10.1516 3.809 10.1601C3.71107 10.187 3.61335 10.2161 3.51585 10.2473L2.8756 10.4525C2.38095 10.6113 2.015 10.9975 1.8915 11.465L1.65555 12.4626C1.79725 12.5933 1.95433 12.7033 2.1281 12.7927Z"
    fill="#6B6B6B" />
  <circle cx="5.6875" cy="5.6875" r="2.1875" fill="#498DCE" />
</svg>