<svg width="18" height="18" viewBox="0 0 18 18" fill="none" xmlns="http://www.w3.org/2000/svg">
<path d="M8.17007 5.78267C7.68235 5.61295 7.26011 5.29852 6.96156 4.88272C6.663 4.46692 6.50282 3.97022 6.50309 3.46106C6.50309 2.80835 6.76653 2.18237 7.23546 1.72083C7.70439 1.25929 8.34039 1 9.00355 1C9.66672 1 10.3027 1.25929 10.7716 1.72083C11.2406 2.18237 11.504 2.80835 11.504 3.46106C11.504 4.53573 10.8039 5.44632 9.83704 5.78267V8.08787C9.29216 7.93554 8.71495 7.93554 8.17007 8.08787V5.78267ZM14.2545 16.6688C13.8052 16.4168 13.4467 16.0334 13.2286 15.5719C13.0106 15.1103 12.9438 14.5934 13.0376 14.0929L11.0039 12.9362C11.404 12.5588 11.704 12.0748 11.8374 11.5169L13.8711 12.6736C14.6546 12.0092 15.8048 11.8779 16.7466 12.4111C17.9469 13.092 18.3553 14.5933 17.6635 15.7664C17.5005 16.0466 17.2828 16.2923 17.023 16.4894C16.7632 16.6866 16.4664 16.8312 16.1496 16.9151C15.8328 16.9989 15.5023 17.0203 15.1771 16.9781C14.8519 16.9358 14.5383 16.8307 14.2545 16.6688ZM1.25213 12.4029C2.19397 11.8697 3.34418 12.0092 4.12766 12.6654L6.1697 11.5087C6.30306 12.0748 6.59478 12.5506 7.00318 12.928L4.96114 14.0847C5.15284 15.0855 4.69443 16.1355 3.75259 16.6688C2.55237 17.3497 1.02709 16.9477 0.335292 15.7664C0.170926 15.4863 0.0642548 15.1771 0.021378 14.8565C-0.0214989 14.5358 0.000259353 14.21 0.0854087 13.8976C0.170558 13.5852 0.317429 13.2925 0.517623 13.036C0.717817 12.7795 0.967409 12.5644 1.25213 12.4029ZM10.6705 10.8443C10.6705 11.2794 10.4949 11.6967 10.1823 12.0044C9.86966 12.3121 9.44566 12.485 9.00355 12.485C8.56144 12.485 8.13744 12.3121 7.82482 12.0044C7.51221 11.6967 7.33658 11.2794 7.33658 10.8443C7.33658 10.4091 7.51221 9.99179 7.82482 9.6841C8.13744 9.37641 8.56144 9.20355 9.00355 9.20355C9.44566 9.20355 9.86966 9.37641 10.1823 9.6841C10.4949 9.99179 10.6705 10.4091 10.6705 10.8443ZM13.171 10.8443L13.146 11.3119L11.9208 10.6064C11.8374 9.72858 11.3623 8.96565 10.6705 8.48164V7.07883C12.1458 7.71871 13.171 9.16253 13.171 10.8443ZM11.479 14.1503C10.7872 14.6507 9.92872 14.946 9.00355 14.946C8.07838 14.946 7.21989 14.6507 6.5281 14.1257L7.75332 13.4448C8.13673 13.6171 8.5618 13.7155 9.00355 13.7155C9.4453 13.7155 9.86204 13.6171 10.2538 13.4448L11.479 14.1503ZM4.86112 11.3037L4.83612 10.8443C4.83612 9.16253 5.86131 7.71871 7.33658 7.08703V8.48984C6.64479 8.96565 6.1697 9.72858 6.08635 10.5982L4.86112 11.3037Z" fill="#F7FF5F"/>
</svg>
